<?xml version="1.0" encoding="UTF-8" standalone="no"?>
<!-- Created with Inkscape (http://www.inkscape.org/) -->

<svg
   width="1080"
   height="2400"
   viewBox="0 0 285.74999 635.00002"
   version="1.1"
   id="svg5"
   inkscape:version="1.3.2 (091e20ef0f, 2023-11-25, custom)"
   sodipodi:docname="fastboot.svg"
   inkscape:export-filename="fastboot.png"
   inkscape:export-xdpi="96"
   inkscape:export-ydpi="96"
   xmlns:inkscape="http://www.inkscape.org/namespaces/inkscape"
   xmlns:sodipodi="http://sodipodi.sourceforge.net/DTD/sodipodi-0.dtd"
   xmlns="http://www.w3.org/2000/svg"
   xmlns:svg="http://www.w3.org/2000/svg"
   xmlns:rdf="http://www.w3.org/1999/02/22-rdf-syntax-ns#"
   xmlns:cc="http://creativecommons.org/ns#"
   xmlns:dc="http://purl.org/dc/elements/1.1/">
  <metadata
     id="metadata42">
    <rdf:RDF>
      <cc:Work
         rdf:about="">
        <dc:format>image/svg+xml</dc:format>
        <dc:type
           rdf:resource="http://purl.org/dc/dcmitype/StillImage" />
        <dc:title />
      </cc:Work>
    </rdf:RDF>
  </metadata>
  <sodipodi:namedview
     id="namedview7"
     pagecolor="#000000"
     bordercolor="#666666"
     borderopacity="1.0"
     inkscape:pageshadow="2"
     inkscape:pageopacity="1"
     inkscape:pagecheckerboard="0"
     inkscape:document-units="mm"
     showgrid="false"
     units="px"
     width="1080px"
     inkscape:zoom="0.34238573"
     inkscape:cx="645.47083"
     inkscape:cy="1102.5576"
     inkscape:window-width="1920"
     inkscape:window-height="995"
     inkscape:window-x="0"
     inkscape:window-y="0"
     inkscape:window-maximized="1"
     inkscape:current-layer="layer1"
     inkscape:showpageshadow="2"
     inkscape:deskcolor="#d1d1d1"
     inkscape:export-bgcolor="#000000ff" />
  <defs
     id="defs2">
    <rect
       x="303.25721"
       y="409.53482"
       width="138.20218"
       height="20.713763"
       id="rect124405" />
    <rect
       x="217.44172"
       y="442.82666"
       width="624.34951"
       height="246.91608"
       id="rect71126" />
    <rect
       x="357.75839"
       y="688.40022"
       width="589.97879"
       height="72.887778"
       id="rect86095" />
    <rect
       x="249.16106"
       y="159.92845"
       width="694.66264"
       height="363.55297"
       id="rect30752" />
  </defs>
  <g
     inkscape:label="Livello 1"
     inkscape:groupmode="layer"
     id="layer1">
    <text
       xml:space="preserve"
       id="text86093"
       style="font-style:normal;font-variant:normal;font-weight:bold;font-stretch:normal;font-size:12.7px;line-height:1.25;font-family:Roboto;-inkscape-font-specification:'Roboto Bold';letter-spacing:2.64584px;white-space:pre;shape-inside:url(#rect86095);display:inline;fill:#9f0b1e;fill-opacity:1;stroke:none;stroke-width:0.264584"
       x="-44.793377"
       y="-100.50491"
       transform="matrix(0.99999747,0,0,0.99999747,-257.25421,-639.13085)"><tspan
         x="357.75781"
         y="699.51289"
         id="tspan1">FASTBOOT MODE</tspan></text>
    <text
       xml:space="preserve"
       id="text124403"
       style="font-style:normal;font-variant:normal;font-weight:normal;font-stretch:normal;font-size:8.46667px;line-height:1.25;font-family:'Roboto Mono';-inkscape-font-specification:'Roboto Mono';white-space:pre;shape-inside:url(#rect124405);display:inline;fill:#ffffff;fill-opacity:1;stroke:none;stroke-width:0.264583"
       x="20.027809"
       y="18.334351"
       transform="translate(-204.63626,-288.85944)"><tspan
         x="303.25781"
         y="417.32043"
         id="tspan2">Connect your device to a PC </tspan><tspan
         x="303.25781"
         y="427.90378"
         id="tspan3">to start</tspan></text>
    <g
       style="fill:#ffffff"
       id="g134151"
       transform="matrix(1.3394531,0,0,1.3394531,126.80156,563.21234)">
      <path
         d="M 0,0 H 24 V 24 H 0 Z"
         id="path134139"
         inkscape:connector-curvature="0"
         style="fill:none" />
      <path
         d="m 15,7 v 4 h 1 v 2 H 13 V 5 h 2 L 12,1 9,5 h 2 v 8 H 8 V 10.93 C 8.7,10.56 9.2,9.85 9.2,9 9.2,7.79 8.21,6.8 7,6.8 5.79,6.8 4.8,7.79 4.8,9 4.8,9.85 5.3,10.56 6,10.93 V 13 c 0,1.11 0.89,2 2,2 h 3 v 3.05 c -0.71,0.37 -1.2,1.1 -1.2,1.95 0,1.22 0.99,2.2 2.2,2.2 1.21,0 2.2,-0.98 2.2,-2.2 0,-0.85 -0.49,-1.58 -1.2,-1.95 V 15 h 3 c 1.11,0 2,-0.89 2,-2 v -2 h 1 V 7 Z"
         id="path134141"
         inkscape:connector-curvature="0" />
    </g>
    <g
       style="fill:#ffffff"
       id="g168875"
       transform="matrix(1.3394531,0,0,1.3394531,49.946074,114.54557)">
      <path
         d="M 0,0 H 24 V 24 H 0 Z"
         id="path168863"
         inkscape:connector-curvature="0"
         style="fill:none" />
      <path
         d="M 4.0000016,6 H 22.000002 V 4 H 4.0000016 c -1.1,0 -2,0.9 -2,2 V 17 H 1.6177559e-6 v 3 H 14.000002 V 17 H 4.0000016 Z M 23.000002,8 h -6 c -0.55,0 -1,0.45 -1,1 v 10 c 0,0.55 0.45,1 1,1 h 6 c 0.55,0 1,-0.45 1,-1 V 9 c 0,-0.55 -0.45,-1 -1,-1 z m -1,9 h -4 v -7 h 4 z"
         id="path168865"
         inkscape:connector-curvature="0" />
    </g>
    <g
       style="fill:#db4437;fill-opacity:1"
       id="g65869"
       transform="matrix(1.5068848,0,0,1.5068848,44.460723,37.035419)">
      <path
         d="M 7.5045097,21 H 22.56451 c 1.54,0 2.5,-1.67 1.73,-3 l -7.53,-13.01 c -0.77,-1.33 -2.69,-1.33 -3.46,0 L 5.7745097,18 c -0.77,1.33 0.19,3 1.73,3 z M 15.03451,14 c -0.55,0 -1,-0.45 -1,-1 v -2 c 0,-0.55 0.45,-1 1,-1 0.55,0 1,0.45 1,1 v 2 c 0,0.55 -0.45,1 -1,1 z m 1,4 h -2 v -2 h 2 z"
         id="path65860"
         style="fill:#db4437;fill-opacity:1"
         inkscape:connector-curvature="0" />
    </g>
  </g>
</svg>
