<?xml version="1.0" encoding="UTF-8" standalone="no"?>
<!-- Created with Inkscape (http://www.inkscape.org/) -->

<svg
   width="1080"
   height="2400"
   viewBox="0 0 285.74999 635.00002"
   version="1.1"
   id="svg5"
   inkscape:version="1.1 (c4e8f9ed74, 2021-05-24)"
   sodipodi:docname="normal.svg"
   inkscape:export-filename="/home/seba/Scrivania/logo/splashes/lineageos/normal.png"
   inkscape:export-xdpi="96"
   inkscape:export-ydpi="96"
   xmlns:inkscape="http://www.inkscape.org/namespaces/inkscape"
   xmlns:sodipodi="http://sodipodi.sourceforge.net/DTD/sodipodi-0.dtd"
   xmlns="http://www.w3.org/2000/svg"
   xmlns:svg="http://www.w3.org/2000/svg">
  <sodipodi:namedview
     id="namedview7"
     pagecolor="#000000"
     bordercolor="#666666"
     borderopacity="1.0"
     inkscape:pageshadow="2"
     inkscape:pageopacity="1"
     inkscape:pagecheckerboard="0"
     inkscape:document-units="mm"
     showgrid="false"
     units="px"
     width="1080px"
     inkscape:zoom="0.3911854"
     inkscape:cx="498.48486"
     inkscape:cy="1297.3388"
     inkscape:window-width="1440"
     inkscape:window-height="835"
     inkscape:window-x="0"
     inkscape:window-y="0"
     inkscape:window-maximized="1"
     inkscape:current-layer="layer1" />
  <defs
     id="defs2" />
  <g
     inkscape:label="Livello 1"
     inkscape:groupmode="layer"
     id="layer1">
    <g
       fill="none"
       id="g1017"
       transform="matrix(0.26618205,0,0,0.26618205,106.43747,558.62597)">
      <path
         d="m 3.936,25 v -6.816 h 3.192 c 1.872,0 3.304,-0.444 4.296,-1.332 0.992,-0.888 1.488,-2.124 1.488,-3.708 0,-1.568 -0.48,-2.804 -1.44,-3.708 C 10.512,8.532 9.064,8.08 7.128,8.08 H 1.752 V 25 Z m 3,-8.64 h -3 V 9.904 h 3 c 1.328,0 2.284,0.276 2.868,0.828 0.584,0.552 0.876,1.356 0.876,2.412 0,1.024 -0.292,1.816 -0.876,2.376 -0.584,0.56 -1.54,0.84 -2.868,0.84 z m 14.496,8.808 c 1.264,0 2.396,-0.272 3.396,-0.816 1,-0.544 1.784,-1.324 2.352,-2.34 0.568,-1.016 0.852,-2.212 0.852,-3.588 0,-1.376 -0.284,-2.576 -0.852,-3.6 -0.568,-1.024 -1.352,-1.808 -2.352,-2.352 -1,-0.544 -2.132,-0.816 -3.396,-0.816 -1.264,0 -2.396,0.272 -3.396,0.816 -1,0.544 -1.788,1.328 -2.364,2.352 -0.576,1.024 -0.864,2.224 -0.864,3.6 0,1.376 0.288,2.572 0.864,3.588 0.576,1.016 1.364,1.796 2.364,2.34 1,0.544 2.132,0.816 3.396,0.816 z m 0,-1.92 c -0.784,0 -1.508,-0.176 -2.172,-0.528 -0.664,-0.352 -1.2,-0.892 -1.608,-1.62 -0.408,-0.728 -0.612,-1.62 -0.612,-2.676 0,-1.072 0.204,-1.972 0.612,-2.7 0.408,-0.728 0.944,-1.268 1.608,-1.62 0.664,-0.352 1.388,-0.528 2.172,-0.528 0.784,0 1.508,0.176 2.172,0.528 0.664,0.352 1.2,0.892 1.608,1.62 0.408,0.728 0.612,1.628 0.612,2.7 0,1.056 -0.204,1.948 -0.612,2.676 -0.408,0.728 -0.944,1.268 -1.608,1.62 -0.664,0.352 -1.388,0.528 -2.172,0.528 z M 35.568,25 39.216,14.272 42.84,25 h 2.352 L 48.984,11.824 H 46.896 L 44.064,22.888 40.392,11.824 h -2.28 L 34.464,22.912 31.656,11.824 H 29.448 L 33.192,25 Z m 21.288,0.168 c 1.104,0 2.096,-0.2 2.976,-0.6 0.88,-0.4 1.596,-0.96 2.148,-1.68 0.552,-0.72 0.908,-1.536 1.068,-2.448 H 60.72 c -0.16,0.896 -0.596,1.612 -1.308,2.148 -0.712,0.536 -1.596,0.804 -2.652,0.804 -1.168,0 -2.156,-0.376 -2.964,-1.128 -0.808,-0.752 -1.236,-1.88 -1.284,-3.384 h 10.536 c 0.064,-0.336 0.096,-0.736 0.096,-1.2 0,-1.104 -0.252,-2.112 -0.756,-3.024 -0.504,-0.912 -1.232,-1.64 -2.184,-2.184 -0.952,-0.544 -2.068,-0.816 -3.348,-0.816 -1.264,0 -2.384,0.272 -3.36,0.816 -0.976,0.544 -1.74,1.328 -2.292,2.352 -0.552,1.024 -0.828,2.224 -0.828,3.6 0,1.376 0.276,2.572 0.828,3.588 0.552,1.016 1.316,1.796 2.292,2.34 0.976,0.544 2.096,0.816 3.36,0.816 z m 4.08,-7.344 h -8.424 c 0.064,-1.44 0.504,-2.532 1.32,-3.276 0.816,-0.744 1.824,-1.116 3.024,-1.116 0.752,0 1.448,0.16 2.088,0.48 0.64,0.32 1.144,0.808 1.512,1.464 0.368,0.656 0.528,1.472 0.48,2.448 z M 68.184,25 v -6.936 c 0,-1.456 0.392,-2.5 1.176,-3.132 0.784,-0.632 1.792,-0.948 3.024,-0.948 h 0.672 v -2.376 c -1.152,0 -2.144,0.252 -2.976,0.756 -0.832,0.504 -1.464,1.212 -1.896,2.124 V 11.824 H 66 V 25 Z m 12.864,0.168 c 1.104,0 2.096,-0.2 2.976,-0.6 0.88,-0.4 1.596,-0.96 2.148,-1.68 0.552,-0.72 0.908,-1.536 1.068,-2.448 h -2.328 c -0.16,0.896 -0.596,1.612 -1.308,2.148 -0.712,0.536 -1.596,0.804 -2.652,0.804 -1.168,0 -2.156,-0.376 -2.964,-1.128 -0.808,-0.752 -1.236,-1.88 -1.284,-3.384 H 87.24 c 0.064,-0.336 0.096,-0.736 0.096,-1.2 0,-1.104 -0.252,-2.112 -0.756,-3.024 -0.504,-0.912 -1.232,-1.64 -2.184,-2.184 -0.952,-0.544 -2.068,-0.816 -3.348,-0.816 -1.264,0 -2.384,0.272 -3.36,0.816 -0.976,0.544 -1.74,1.328 -2.292,2.352 -0.552,1.024 -0.828,2.224 -0.828,3.6 0,1.376 0.276,2.572 0.828,3.588 0.552,1.016 1.316,1.796 2.292,2.34 0.976,0.544 2.096,0.816 3.36,0.816 z m 4.08,-7.344 h -8.424 c 0.064,-1.44 0.504,-2.532 1.32,-3.276 0.816,-0.744 1.824,-1.116 3.024,-1.116 0.752,0 1.448,0.16 2.088,0.48 0.64,0.32 1.144,0.808 1.512,1.464 0.368,0.656 0.528,1.472 0.48,2.448 z m 10.464,7.344 c 1.28,0 2.364,-0.32 3.252,-0.96 0.888,-0.64 1.508,-1.496 1.86,-2.568 V 25 h 2.184 V 7.24 h -2.184 v 7.944 c -0.352,-1.072 -0.972,-1.928 -1.86,-2.568 -0.888,-0.64 -1.972,-0.96 -3.252,-0.96 -1.168,0 -2.208,0.272 -3.12,0.816 -0.912,0.544 -1.628,1.328 -2.148,2.352 -0.52,1.024 -0.78,2.224 -0.78,3.6 0,1.376 0.26,2.572 0.78,3.588 0.52,1.016 1.236,1.796 2.148,2.34 0.912,0.544 1.952,0.816 3.12,0.816 z m 0.624,-1.92 c -1.344,0 -2.42,-0.428 -3.228,-1.284 -0.808,-0.856 -1.212,-2.036 -1.212,-3.54 0,-1.504 0.404,-2.684 1.212,-3.54 0.808,-0.856 1.884,-1.284 3.228,-1.284 0.864,0 1.636,0.196 2.316,0.588 0.68,0.392 1.212,0.956 1.596,1.692 0.384,0.736 0.576,1.584 0.576,2.544 0,0.96 -0.192,1.804 -0.576,2.532 -0.384,0.728 -0.916,1.292 -1.596,1.692 -0.68,0.4 -1.452,0.6 -2.316,0.6 z m 23.352,1.92 c 1.168,0 2.208,-0.272 3.12,-0.816 0.912,-0.544 1.628,-1.324 2.148,-2.34 0.52,-1.016 0.78,-2.212 0.78,-3.588 0,-1.376 -0.26,-2.576 -0.78,-3.6 -0.52,-1.024 -1.236,-1.808 -2.148,-2.352 -0.912,-0.544 -1.952,-0.816 -3.12,-0.816 -1.28,0 -2.364,0.324 -3.252,0.972 -0.888,0.648 -1.5,1.5 -1.836,2.556 V 7.24 h -2.184 V 25 h 2.184 v -3.36 c 0.336,1.056 0.948,1.908 1.836,2.556 0.888,0.648 1.972,0.972 3.252,0.972 z m -0.624,-1.92 c -0.848,0 -1.616,-0.2 -2.304,-0.6 -0.688,-0.4 -1.224,-0.964 -1.608,-1.692 -0.384,-0.728 -0.576,-1.572 -0.576,-2.532 0,-0.96 0.192,-1.808 0.576,-2.544 0.384,-0.736 0.92,-1.3 1.608,-1.692 0.688,-0.392 1.456,-0.588 2.304,-0.588 1.36,0 2.444,0.428 3.252,1.284 0.808,0.856 1.212,2.036 1.212,3.54 0,1.504 -0.404,2.684 -1.212,3.54 -0.808,0.856 -1.892,1.284 -3.252,1.284 z m 13.272,7.992 7.824,-19.416 h -2.424 l -3.96,10.368 -4.272,-10.368 h -2.448 l 5.544,12.96 -2.736,6.456 z M 13.115,52.4 c 3.92,0 7.174,2.022 8.723,4.203 v -3.666 h 5.973 v 27.21 h -4.298 a 1.7,1.7 0 0 1 -1.707,-1.706 v -1.96 c -1.517,2.213 -4.772,4.235 -8.69,4.235 C 5.656,80.716 0,74.332 0,66.558 0,58.784 5.657,52.4 13.115,52.4 m 1.075,5.436 c -4.835,0 -8.122,3.824 -8.122,8.722 0,4.899 3.255,8.723 8.122,8.723 4.835,0 8.122,-3.824 8.122,-8.723 0,-4.898 -3.255,-8.722 -8.122,-8.722 m 20.416,-4.899 h 6.004 v 3.698 c 1.644,-2.718 4.74,-4.235 8.28,-4.235 6.32,0 10.398,4.456 10.398,11.377 v 16.37 H 54.99 A 1.7,1.7 0 0 1 53.283,78.441 V 64.757 c 0,-4.298 -2.18,-6.921 -5.657,-6.921 -3.982,0 -7.016,3.097 -7.016,8.912 v 13.4 H 36.312 A 1.7,1.7 0 0 1 34.606,78.441 Z M 77.143,52.4 c 3.92,0 7.174,2.022 8.723,4.203 V 39.348 h 5.973 v 40.831 h -4.298 a 1.7,1.7 0 0 1 -1.707,-1.707 v -1.959 c -1.517,2.18 -4.803,4.203 -8.722,4.203 -7.458,0 -13.115,-6.384 -13.115,-14.158 C 64.028,58.784 69.685,52.4 77.143,52.4 m 1.075,5.436 c -4.835,0 -8.122,3.824 -8.122,8.722 0,4.899 3.255,8.723 8.122,8.723 4.835,0 8.122,-3.824 8.122,-8.723 0,-4.898 -3.287,-8.722 -8.122,-8.722 m 20.416,-4.899 h 5.973 v 4.835 a 7.667,7.667 0 0 1 7.174,-5.12 c 0.784,-10e-4 1.568,0.073 2.338,0.222 v 6.162 a 9.652,9.652 0 0 0 -3.002,-0.505 c -3.445,0 -6.542,2.876 -6.542,8.343 v 13.273 h -4.298 A 1.7,1.7 0 0 1 98.57,78.441 V 52.937 Z m 31.666,27.78 c -8.059,0 -14.253,-6.258 -14.253,-14.159 0,-7.9 6.194,-14.158 14.253,-14.158 8.059,0 14.253,6.257 14.253,14.158 0,7.9 -6.194,14.158 -14.253,14.158 m 0,-5.562 c 4.804,0 8.154,-3.76 8.154,-8.596 0,-4.835 -3.382,-8.596 -8.154,-8.596 -4.835,0 -8.217,3.76 -8.217,8.596 0,4.835 3.382,8.596 8.217,8.596 m 22.09,-28.158 a 4.04,4.04 0 0 1 -4.013,-4.014 4.054,4.054 0 0 1 4.014,-3.982 3.998,3.998 0 0 1 0,7.996 m -2.97,5.941 h 5.972 v 27.21 h -4.266 A 1.7,1.7 0 0 1 149.42,78.441 Z M 173.439,52.4 c 3.918,0 7.173,2.022 8.722,4.203 V 39.348 h 5.973 v 40.831 h -4.298 a 1.7,1.7 0 0 1 -1.707,-1.707 v -1.959 c -1.517,2.18 -4.803,4.203 -8.722,4.203 -7.458,0 -13.115,-6.384 -13.115,-14.158 0.031,-7.774 5.688,-14.158 13.147,-14.158 m 1.106,5.436 c -4.836,0 -8.122,3.824 -8.122,8.722 0,4.899 3.255,8.723 8.122,8.723 4.835,0 8.122,-3.824 8.122,-8.723 0,-4.898 -3.287,-8.722 -8.122,-8.722"
         fill="#000000"
         id="path1013"
         style="fill:#ffffff;fill-opacity:1" />
      <path
         d="m 254.216,69.876 a 3.034,3.034 0 1 1 0,-6.067 3.034,3.034 0 0 1 0,6.067 m -33.404,0 a 3.034,3.034 0 1 1 0,-6.067 3.034,3.034 0 0 1 0,6.067 m 34.479,-18.203 6.068,-10.46 a 1.2522668,1.2522668 0 1 0 -2.18,-1.233 l -6.132,10.587 a 37.032,37.032 0 0 0 -15.517,-3.35 37.656,37.656 0 0 0 -15.549,3.318 l -6.13,-10.587 a 1.2531374,1.2531374 0 0 0 -2.182,1.233 l 6.037,10.46 a 35.745,35.745 0 0 0 -18.52,28.57 h 72.593 A 35.563,35.563 0 0 0 255.291,51.673"
         fill="#3ddc84"
         id="path1015" />
    </g>
    <g
       style="fill:#167c80"
       id="g1643"
       transform="matrix(1.3394531,0,0,1.3394531,-17.857859,290.73606)">
      <path
         d="M 61.13,27 A 1.1,1.1 0 0 1 60,25.83 V 13 h 2.79 V 24.62 H 69 V 27 Z m 16.24,0 V 13 h 2.81 V 27 Z M 99.1,13 h 2.56 v 13.2 a 0.74,0.74 0 0 1 -0.4,0.65 1.9,1.9 0 0 1 -1,0.24 2.4,2.4 0 0 1 -1,-0.18 1.86,1.86 0 0 1 -0.67,-0.61 l -6.2,-8.7 V 27 H 89.8 V 14.07 a 0.94,0.94 0 0 1 0.41,-0.84 1.91,1.91 0 0 1 1.07,-0.23 2.15,2.15 0 0 1 1.14,0.23 3.55,3.55 0 0 1 0.85,0.94 l 5.83,8.16 z m 21.43,2.36 h -6.42 v 3.3 h 5.78 v 2.36 h -5.78 v 3.53 h 6.24 V 27 H 111.3 V 14.17 a 1,1 0 0 1 0.35,-0.82 1.22,1.22 0 0 1 0.84,-0.31 h 8 z M 138.23,27 137.06,23.55 H 132 L 130.79,27 h -2.91 l 4.72,-12.9 a 2.17,2.17 0 0 1 3.8,0 l 4.73,12.9 z m -5.46,-5.81 h 3.49 L 134.5,16 Z m 22.23,6 a 6.62,6.62 0 0 1 -5,-1.91 7.16,7.16 0 0 1 -1.83,-5.17 7.27,7.27 0 0 1 2,-5.34 6.93,6.93 0 0 1 5.17,-2 6.86,6.86 0 0 1 3.6,0.9 A 5.38,5.38 0 0 1 161,16 l -2.24,1.19 a 3.64,3.64 0 0 0 -3.57,-2 3.92,3.92 0 0 0 -3.08,1.3 5.15,5.15 0 0 0 -1.11,3.51 5.2,5.2 0 0 0 1.07,3.48 3.67,3.67 0 0 0 2.93,1.28 4,4 0 0 0 2.76,-0.95 3.16,3.16 0 0 0 1.12,-2.39 h -3.53 v -2.2 h 6.3 v 1.54 a 6.11,6.11 0 0 1 -1.87,4.63 6.67,6.67 0 0 1 -4.78,1.79 z M 180,15.4 h -6.42 v 3.3 h 5.78 v 2.36 h -5.78 v 3.53 h 6.24 V 27 h -9.05 V 14.17 A 1,1 0 0 1 171.12,13.35 1.22,1.22 0 0 1 172,13 h 8 z"
         id="path2" />
    </g>
  </g>
</svg>
