<?xml version="1.0" encoding="UTF-8" standalone="no"?>
<!-- Created with Inkscape (http://www.inkscape.org/) -->

<svg
   xmlns:dc="http://purl.org/dc/elements/1.1/"
   xmlns:cc="http://creativecommons.org/ns#"
   xmlns:rdf="http://www.w3.org/1999/02/22-rdf-syntax-ns#"
   xmlns:svg="http://www.w3.org/2000/svg"
   xmlns="http://www.w3.org/2000/svg"
   xmlns:sodipodi="http://sodipodi.sourceforge.net/DTD/sodipodi-0.dtd"
   xmlns:inkscape="http://www.inkscape.org/namespaces/inkscape"
   width="1080"
   height="2400"
   viewBox="0 0 285.74999 635.00002"
   version="1.1"
   id="svg5"
   inkscape:version="0.92.5 (2060ec1f9f, 2020-04-08)"
   sodipodi:docname="system-destroyed.svg"
   inkscape:export-filename="/home/seba/Scrivania/Repositories/SebaUbuntu/logo/splashes/lineageos/system-destroyed.png"
   inkscape:export-xdpi="96"
   inkscape:export-ydpi="96">
  <metadata
     id="metadata33">
    <rdf:RDF>
      <cc:Work
         rdf:about="">
        <dc:format>image/svg+xml</dc:format>
        <dc:type
           rdf:resource="http://purl.org/dc/dcmitype/StillImage" />
        <dc:title></dc:title>
      </cc:Work>
    </rdf:RDF>
  </metadata>
  <sodipodi:namedview
     id="namedview7"
     pagecolor="#000000"
     bordercolor="#666666"
     borderopacity="1.0"
     inkscape:pageshadow="2"
     inkscape:pageopacity="1"
     inkscape:pagecheckerboard="0"
     inkscape:document-units="mm"
     showgrid="false"
     units="px"
     width="1080px"
     inkscape:zoom="0.5532197"
     inkscape:cx="481.57434"
     inkscape:cy="2020.1097"
     inkscape:window-width="1440"
     inkscape:window-height="864"
     inkscape:window-x="1440"
     inkscape:window-y="0"
     inkscape:window-maximized="1"
     inkscape:current-layer="layer1" />
  <defs
     id="defs2">
    <rect
       x="266.3021"
       y="2225.0649"
       width="794.78171"
       height="120.60945"
       id="rect248928" />
    <rect
       x="102.05156"
       y="196.24393"
       width="627.58636"
       height="202.8283"
       id="rect200901" />
    <rect
       x="303.25721"
       y="409.53482"
       width="632.4813"
       height="50.099922"
       id="rect124405" />
    <rect
       x="217.44172"
       y="442.82666"
       width="624.34951"
       height="246.91608"
       id="rect71126" />
    <rect
       x="357.75839"
       y="688.40022"
       width="589.97879"
       height="72.887778"
       id="rect86095" />
    <rect
       x="249.16106"
       y="159.92845"
       width="694.66264"
       height="363.55297"
       id="rect30752" />
  </defs>
  <g
     inkscape:label="Livello 1"
     inkscape:groupmode="layer"
     id="layer1">
    <text
       xml:space="preserve"
       id="text200899"
       style="font-style:normal;font-variant:normal;font-weight:normal;font-stretch:normal;font-size:32px;line-height:1.25;font-family:'Product Sans';-inkscape-font-specification:'Product Sans';white-space:pre;shape-inside:url(#rect200901);fill:#ffffff;fill-opacity:1;stroke:none"
       transform="matrix(0.26458333,0,0,0.26458333,24.243464,30.607863)"><tspan
         x="102.05078"
         y="225.56978"
         id="tspan284475">No valid operating system could be found.
</tspan><tspan
         x="102.05078"
         y="265.56979"
         id="tspan284477">The device will not boot.
</tspan><tspan
         x="102.05078"
         y="305.56979"
         id="tspan284479">
</tspan><tspan
         x="102.05078"
         y="345.56979"
         id="tspan284481">Visit this link on another device to learn more:
</tspan><tspan
         x="102.05078"
         y="385.56979"
         id="tspan284485"><tspan
   style="fill:#d94336"
   id="tspan284483">g.co/ABH</tspan>
</tspan><tspan
         x="102.05078"
         y="425.56979"
         id="tspan284487">
</tspan></text>
    <g
       style="fill:#db4437;fill-opacity:1"
       id="g65869"
       transform="matrix(1.5068848,0,0,1.5068848,48.694061,37.035762)">
      <path
         d="m 4.47,21 h 15.06 c 1.54,0 2.5,-1.67 1.73,-3 L 13.73,4.99 c -0.77,-1.33 -2.69,-1.33 -3.46,0 L 2.74,18 c -0.77,1.33 0.19,3 1.73,3 z M 12,14 c -0.55,0 -1,-0.45 -1,-1 v -2 c 0,-0.55 0.45,-1 1,-1 0.55,0 1,0.45 1,1 v 2 c 0,0.55 -0.45,1 -1,1 z m 1,4 h -2 v -2 h 2 z"
         id="path65860"
         style="fill:#db4437;fill-opacity:1"
         inkscape:connector-curvature="0" />
    </g>
  </g>
</svg>
