<?xml version="1.0" encoding="UTF-8" standalone="no"?>
<svg
   height="24px"
   viewBox="0 -960 960 960"
   width="24px"
   fill="#e8eaed"
   version="1.1"
   id="svg1"
   sodipodi:docname="channel.svg"
   inkscape:version="1.3.2 (091e20ef0f, 2023-11-25, custom)"
   inkscape:export-filename="channel.png"
   inkscape:export-xdpi="10240"
   inkscape:export-ydpi="10240"
   xmlns:inkscape="http://www.inkscape.org/namespaces/inkscape"
   xmlns:sodipodi="http://sodipodi.sourceforge.net/DTD/sodipodi-0.dtd"
   xmlns="http://www.w3.org/2000/svg"
   xmlns:svg="http://www.w3.org/2000/svg">
  <defs
     id="defs1" />
  <sodipodi:namedview
     id="namedview1"
     pagecolor="#009aff"
     bordercolor="#000000"
     borderopacity="0.25"
     inkscape:showpageshadow="2"
     inkscape:pageopacity="0.0"
     inkscape:pagecheckerboard="0"
     inkscape:deskcolor="#d1d1d1"
     inkscape:zoom="32.875"
     inkscape:cx="11.984791"
     inkscape:cy="12"
     inkscape:window-width="1920"
     inkscape:window-height="995"
     inkscape:window-x="0"
     inkscape:window-y="0"
     inkscape:window-maximized="1"
     inkscape:current-layer="svg1"
     inkscape:export-bgcolor="#009affff" />
  <path
     d="m 600,-460 v -40 h 80 v 40 z m 24,140 -64,-48 24,-32 64,48 z m -40,-240 -24,-32 64,-48 24,32 z m -244,220 v -80 h -20 q -16.5,0 -28.25,-11.75 Q 280,-443.5 280,-460 v -40 q 0,-16.5 11.75,-28.25 Q 303.5,-540 320,-540 h 80 l 100,-60 v 240 l -100,-60 h -20 v 80 z m 120,-91 v -98 l -49,29 h -91 v 40 h 91 z m 60,18 v -134 q 13.5,12 21.75,29.25 8.25,17.25 8.25,37.75 0,20.5 -8.25,37.75 Q 533.5,-425 520,-413 Z m -130,-67 z"
     id="path1"
     style="stroke-width:0.5" />
</svg>
