<?xml version="1.0" encoding="UTF-8" standalone="no"?>
<svg
   height="24px"
   viewBox="0 -960 960 960"
   width="24px"
   fill="#e8eaed"
   version="1.1"
   id="svg1"
   sodipodi:docname="ci.svg"
   inkscape:version="1.3.2 (091e20ef0f, 2023-11-25, custom)"
   inkscape:export-filename="ci.png"
   inkscape:export-xdpi="10240"
   inkscape:export-ydpi="10240"
   xmlns:inkscape="http://www.inkscape.org/namespaces/inkscape"
   xmlns:sodipodi="http://sodipodi.sourceforge.net/DTD/sodipodi-0.dtd"
   xmlns="http://www.w3.org/2000/svg"
   xmlns:svg="http://www.w3.org/2000/svg">
  <defs
     id="defs1" />
  <sodipodi:namedview
     id="namedview1"
     pagecolor="#009aff"
     bordercolor="#000000"
     borderopacity="0.25"
     inkscape:showpageshadow="2"
     inkscape:pageopacity="0.0"
     inkscape:pagecheckerboard="0"
     inkscape:deskcolor="#d1d1d1"
     inkscape:zoom="32.875"
     inkscape:cx="11.984791"
     inkscape:cy="12"
     inkscape:window-width="1920"
     inkscape:window-height="995"
     inkscape:window-x="0"
     inkscape:window-y="0"
     inkscape:window-maximized="1"
     inkscape:current-layer="svg1"
     inkscape:export-bgcolor="#009affff" />
  <path
     d="M 583,-306 462,-428 q -10,4 -20.25,6 -10.25,2 -21.75,2 -50,0 -85,-35 -35,-35 -35,-85 0,-18 5,-34.25 5,-16.25 14,-30.75 l 73,73 36,-36 -73,-73 q 14.5,-9 30.75,-14 16.25,-5 34.25,-5 50,0 85,35 35,35 35,85 0,11.5 -2,21.75 -2,10.25 -6,20.25 l 122,121 q 6,6 6,14.5 0,8.5 -6,14.5 l -42,42 q -6,6 -14.5,6 -8.5,0 -14.5,-6 z M 597.5,-348.5 611,-362 483,-490 q 9,-10 13,-23.25 4,-13.25 4,-26.75 0,-30 -19.25,-52.25 Q 461.5,-614.5 433,-619 l 37,37 q 6,6 6,14 0,8 -6,14 l -64,64 q -6,6 -14,6 -8,0 -14,-6 l -37,-37 q 4.5,28.5 26.75,47.75 Q 390,-460 420,-460 q 13,0 26,-4 13,-4 23.5,-12.5 z M 476,-484 Z"
     id="path1"
     style="stroke-width:0.5" />
</svg>
