<?xml version="1.0" encoding="UTF-8" standalone="no"?>
<svg
   height="24px"
   viewBox="0 -960 960 960"
   width="24px"
   fill="#e8eaed"
   version="1.1"
   id="svg1"
   sodipodi:docname="group.svg"
   inkscape:version="1.3.2 (091e20ef0f, 2023-11-25, custom)"
   inkscape:export-filename="group.png"
   inkscape:export-xdpi="10240"
   inkscape:export-ydpi="10240"
   xmlns:inkscape="http://www.inkscape.org/namespaces/inkscape"
   xmlns:sodipodi="http://sodipodi.sourceforge.net/DTD/sodipodi-0.dtd"
   xmlns="http://www.w3.org/2000/svg"
   xmlns:svg="http://www.w3.org/2000/svg">
  <defs
     id="defs1" />
  <sodipodi:namedview
     id="namedview1"
     pagecolor="#009aff"
     bordercolor="#000000"
     borderopacity="0.25"
     inkscape:showpageshadow="2"
     inkscape:pageopacity="0.0"
     inkscape:pagecheckerboard="0"
     inkscape:deskcolor="#d1d1d1"
     inkscape:zoom="32.875"
     inkscape:cx="11.984791"
     inkscape:cy="12"
     inkscape:window-width="1920"
     inkscape:window-height="995"
     inkscape:window-x="0"
     inkscape:window-y="0"
     inkscape:window-maximized="1"
     inkscape:current-layer="svg1"
     inkscape:export-bgcolor="#009affff" />
  <path
     d="m 380,-360 q -8.5,0 -14.25,-5.75 Q 360,-371.5 360,-380 v -40 h 260 v -180 h 40 q 8.5,0 14.25,5.75 5.75,5.75 5.75,14.25 v 300 l -80,-80 z m -100,-20 v -280 q 0,-8.5 5.75,-14.25 Q 291.5,-680 300,-680 h 260 q 8.5,0 14.25,5.75 5.75,5.75 5.75,14.25 v 180 q 0,8.5 -5.75,14.25 Q 568.5,-460 560,-460 H 360 Z M 540,-500 V -640 H 320 v 140 z m -220,0 v -140 z"
     id="path1"
     style="stroke-width:0.5" />
</svg>
