<?xml version="1.0" encoding="UTF-8" standalone="no"?>
<!-- Created with Inkscape (http://www.inkscape.org/) -->

<svg
   width="4096"
   height="2304"
   viewBox="0 0 1083.7333 609.6"
   version="1.1"
   id="svg8"
   inkscape:version="1.3.2 (091e20ef0f, 2023-11-25, custom)"
   sodipodi:docname="play-store-banner.svg"
   inkscape:export-filename="play-store-banner.png"
   inkscape:export-xdpi="96"
   inkscape:export-ydpi="96"
   xmlns:inkscape="http://www.inkscape.org/namespaces/inkscape"
   xmlns:sodipodi="http://sodipodi.sourceforge.net/DTD/sodipodi-0.dtd"
   xmlns="http://www.w3.org/2000/svg"
   xmlns:svg="http://www.w3.org/2000/svg"
   xmlns:rdf="http://www.w3.org/1999/02/22-rdf-syntax-ns#"
   xmlns:cc="http://creativecommons.org/ns#"
   xmlns:dc="http://purl.org/dc/elements/1.1/">
  <defs
     id="defs2" />
  <sodipodi:namedview
     id="base"
     pagecolor="#009aff"
     bordercolor="#666666"
     borderopacity="1.0"
     inkscape:pageopacity="0"
     inkscape:pageshadow="2"
     inkscape:zoom="0.088388348"
     inkscape:cx="780.64589"
     inkscape:cy="650.53824"
     inkscape:document-units="mm"
     inkscape:current-layer="layer1"
     showgrid="false"
     inkscape:window-width="1920"
     inkscape:window-height="995"
     inkscape:window-x="0"
     inkscape:window-y="0"
     inkscape:window-maximized="1"
     inkscape:pagecheckerboard="0"
     inkscape:showpageshadow="2"
     inkscape:deskcolor="#009aff"
     inkscape:export-bgcolor="#009affff">
    <inkscape:grid
       type="xygrid"
       id="grid12"
       originx="0"
       originy="0"
       spacingy="1"
       spacingx="1"
       units="mm"
       visible="false" />
  </sodipodi:namedview>
  <metadata
     id="metadata5">
    <rdf:RDF>
      <cc:Work
         rdf:about="">
        <dc:format>image/svg+xml</dc:format>
        <dc:type
           rdf:resource="http://purl.org/dc/dcmitype/StillImage" />
      </cc:Work>
    </rdf:RDF>
  </metadata>
  <g
     inkscape:label="Livello 1"
     inkscape:groupmode="layer"
     id="layer1"
     transform="translate(0,3)">
    <path
       id="path13"
       style="color:#000000;fill:#ffffff;stroke-width:1.8;stroke-linecap:round;-inkscape-stroke:none"
       d="m 514.87483,174.3929 c -2.00263,0.004 -18.5571,0.29307 -35.64248,8.83576 -18.22443,9.11221 -37.9828,31.45421 -37.9828,64.99322 0,33.53903 19.75837,55.88103 37.9828,64.99325 18.2244,9.1122 35.84525,8.83482 35.84525,8.83482 h 53.57814 c 0,0 9.16834,0.27747 17.73285,4.5597 8.56457,4.28227 15.59533,8.72963 15.59533,28.76849 0,20.03912 -7.03078,24.48617 -15.59533,28.76848 -8.56448,4.28229 -17.73285,4.55972 -17.73285,4.55972 H 461.49948 a 20.25,20.25 0 0 0 -20.24993,20.24993 20.25,20.25 0 0 0 20.24993,20.24993 h 107.15626 c 0,0 17.62093,0.2774 35.84524,-8.83481 18.22434,-9.11227 37.9828,-31.45427 37.9828,-64.99325 0,-33.53882 -19.75846,-55.88107 -37.9828,-64.99325 -18.22431,-9.11214 -35.84524,-8.83479 -35.84524,-8.83479 H 515.0776 c 0,0 -9.16827,-0.27741 -17.73286,-4.55973 -8.56465,-4.28233 -15.59533,-8.72942 -15.59533,-28.76849 0,-20.03907 7.03068,-24.48615 15.59533,-28.76847 8.56459,-4.2823 17.73286,-4.55971 17.73286,-4.55971 h 107.15625 a 20.25,20.25 0 0 0 20.24993,-20.24993 20.25,20.25 0 0 0 -20.24993,-20.24993 H 515.0776 c 0,0 -0.0694,-0.001 -0.20277,-9.4e-4 z m 107.35902,9.53524 a 10.715625,10.715624 0 0 1 10.71563,10.71563 10.715625,10.715624 0 0 1 -10.71563,10.71561 10.715625,10.715624 0 0 1 -10.71562,-10.71561 10.715625,10.715624 0 0 1 10.71562,-10.71563 z M 461.49948,398.2397 a 10.715625,10.715624 0 0 1 10.71562,10.71563 10.715625,10.715624 0 0 1 -10.71562,10.71562 10.715625,10.715624 0 0 1 -10.71562,-10.71562 10.715625,10.715624 0 0 1 10.71562,-10.71563 z" />
  </g>
</svg>
