<?xml version="1.0" encoding="UTF-8" standalone="no"?>
<svg
   inkscape:export-ydpi="84.666664"
   inkscape:export-xdpi="84.666664"
   inkscape:export-filename="/home/seba/Scrivania/logo/propic/SebaUbuntu/bot.png"
   sodipodi:docname="bot.svg"
   inkscape:version="1.1 (c4e8f9ed74, 2021-05-24)"
   id="svg8"
   version="1.1"
   viewBox="0 0 300 300"
   height="300mm"
   width="300mm"
   xmlns:inkscape="http://www.inkscape.org/namespaces/inkscape"
   xmlns:sodipodi="http://sodipodi.sourceforge.net/DTD/sodipodi-0.dtd"
   xmlns="http://www.w3.org/2000/svg"
   xmlns:svg="http://www.w3.org/2000/svg"
   xmlns:rdf="http://www.w3.org/1999/02/22-rdf-syntax-ns#"
   xmlns:cc="http://creativecommons.org/ns#"
   xmlns:dc="http://purl.org/dc/elements/1.1/">
  <defs
     id="defs2" />
  <sodipodi:namedview
     inkscape:document-rotation="0"
     inkscape:window-maximized="1"
     inkscape:window-y="0"
     inkscape:window-x="0"
     inkscape:window-height="835"
     inkscape:window-width="1440"
     showgrid="false"
     inkscape:current-layer="layer1"
     inkscape:document-units="mm"
     inkscape:cy="555"
     inkscape:cx="416"
     inkscape:zoom="0.5"
     inkscape:pageshadow="2"
     inkscape:pageopacity="1"
     borderopacity="1.0"
     bordercolor="#666666"
     pagecolor="#009aff"
     id="base"
     inkscape:pagecheckerboard="0">
    <inkscape:grid
       id="grid12"
       type="xygrid" />
  </sodipodi:namedview>
  <metadata
     id="metadata5">
    <rdf:RDF>
      <cc:Work
         rdf:about="">
        <dc:format>image/svg+xml</dc:format>
        <dc:type
           rdf:resource="http://purl.org/dc/dcmitype/StillImage" />
      </cc:Work>
    </rdf:RDF>
  </metadata>
  <g
     transform="translate(0,3)"
     id="layer1"
     inkscape:groupmode="layer"
     inkscape:label="Livello 1">
    <g
       style="fill:#ffffff"
       id="g1093"
       transform="matrix(6.7809811,0,0,6.7809811,68.628227,65.628227)">
      <g
         id="g1074">
        <rect
           fill="none"
           height="24"
           width="24"
           y="0"
           id="rect1072"
           x="0" />
      </g>
      <g
         id="g1080">
        <g
           id="g1078">
          <path
             d="M 20,9 V 7 C 20,5.9 19.1,5 18,5 H 15 C 15,3.34 13.66,2 12,2 10.34,2 9,3.34 9,5 H 6 C 4.9,5 4,5.9 4,7 v 2 c -1.66,0 -3,1.34 -3,3 0,1.66 1.34,3 3,3 v 4 c 0,1.1 0.9,2 2,2 h 12 c 1.1,0 2,-0.9 2,-2 v -4 c 1.66,0 3,-1.34 3,-3 0,-1.66 -1.34,-3 -3,-3 z"
             id="path1076"
             sodipodi:nodetypes="csscscsscscsssscsc" />
        </g>
      </g>
    </g>
    <path
       inkscape:connector-curvature="0"
       id="path13"
       d="m 170.10245,126.03188 h -26.78922 c 0,0 -13.4157,0 -13.4157,13.39451 0,13.39453 13.4157,13.39453 13.4157,13.39453 h 13.37352 c 0,0 13.41572,0 13.41572,13.39443 0,13.39452 -13.4157,13.39452 -13.4157,13.39452 h -26.78922"
       style="fill:none;stroke:#009aff;stroke-width:10.1258;stroke-linecap:round;stroke-linejoin:miter;stroke-miterlimit:4;stroke-dasharray:none;stroke-opacity:1" />
    <ellipse
       ry="2.6788981"
       rx="2.6793566"
       cy="179.60983"
       cx="129.8954"
       id="path847"
       style="fill:#ffffff;stroke-width:10.1258;stroke-linecap:round;stroke-miterlimit:4;stroke-dasharray:none" />
    <ellipse
       ry="2.6788981"
       rx="2.6793566"
       style="fill:#ffffff;stroke-width:10.1258;stroke-linecap:round;stroke-miterlimit:4;stroke-dasharray:none"
       id="circle849"
       cx="170.05295"
       cy="126.03191" />
  </g>
</svg>
