<?xml version="1.0" encoding="UTF-8" standalone="no"?>
<svg
   inkscape:export-ydpi="84.666664"
   inkscape:export-xdpi="84.666664"
   inkscape:export-filename="/home/seba/Scrivania/logo/propic/SebaUbuntu/ci.png"
   sodipodi:docname="ci.svg"
   inkscape:version="1.1 (c4e8f9ed74, 2021-05-24)"
   id="svg8"
   version="1.1"
   viewBox="0 0 300 300"
   height="300mm"
   width="300mm"
   xmlns:inkscape="http://www.inkscape.org/namespaces/inkscape"
   xmlns:sodipodi="http://sodipodi.sourceforge.net/DTD/sodipodi-0.dtd"
   xmlns="http://www.w3.org/2000/svg"
   xmlns:svg="http://www.w3.org/2000/svg"
   xmlns:rdf="http://www.w3.org/1999/02/22-rdf-syntax-ns#"
   xmlns:cc="http://creativecommons.org/ns#"
   xmlns:dc="http://purl.org/dc/elements/1.1/">
  <defs
     id="defs2" />
  <sodipodi:namedview
     inkscape:document-rotation="0"
     inkscape:window-maximized="1"
     inkscape:window-y="0"
     inkscape:window-x="0"
     inkscape:window-height="835"
     inkscape:window-width="1440"
     showgrid="false"
     inkscape:current-layer="layer1"
     inkscape:document-units="mm"
     inkscape:cy="660.43773"
     inkscape:cx="278.60007"
     inkscape:zoom="0.35355339"
     inkscape:pageshadow="2"
     inkscape:pageopacity="1"
     borderopacity="1.0"
     bordercolor="#666666"
     pagecolor="#009aff"
     id="base"
     inkscape:pagecheckerboard="0">
    <inkscape:grid
       id="grid12"
       type="xygrid" />
  </sodipodi:namedview>
  <metadata
     id="metadata5">
    <rdf:RDF>
      <cc:Work
         rdf:about="">
        <dc:format>image/svg+xml</dc:format>
        <dc:type
           rdf:resource="http://purl.org/dc/dcmitype/StillImage" />
      </cc:Work>
    </rdf:RDF>
  </metadata>
  <g
     transform="translate(0,3)"
     id="layer1"
     inkscape:groupmode="layer"
     inkscape:label="Livello 1">
    <g
       style="fill:#ffffff"
       id="g26664"
       transform="matrix(6.7809813,0,0,6.7809811,68.628224,58.219889)">
      <path
         d="M 0,0 H 24 V 24 H 0 Z"
         fill="none"
         id="path26652" />
      <path
         d="M 19.35,10.04 C 18.67,6.59 15.64,4 12,4 9.11,4 6.6,5.64 5.35,8.04 2.34,8.36 0,10.91 0,14 c 0,3.31 2.69,6 6,6 h 13 c 2.76,0 5,-2.24 5,-5 0,-2.64 -2.05,-4.78 -4.65,-4.96 z"
         id="path26654"
         sodipodi:nodetypes="cscssssc" />
    </g>
    <path
       inkscape:connector-curvature="0"
       id="path13"
       d="m 169.57328,116.50682 h -26.78922 c 0,0 -13.4157,0 -13.4157,13.39451 0,13.39453 13.4157,13.39453 13.4157,13.39453 h 13.37352 c 0,0 13.41572,0 13.41572,13.39443 0,13.39452 -13.4157,13.39452 -13.4157,13.39452 h -26.78922"
       style="fill:none;stroke:#009aff;stroke-width:10.1258;stroke-linecap:round;stroke-linejoin:miter;stroke-miterlimit:4;stroke-dasharray:none;stroke-opacity:1" />
    <ellipse
       ry="2.6788981"
       rx="2.6793566"
       cy="170.08496"
       cx="129.36624"
       id="path847"
       style="fill:#ffffff;stroke-width:10.1258;stroke-linecap:round;stroke-miterlimit:4;stroke-dasharray:none" />
    <ellipse
       ry="2.6788981"
       rx="2.6793566"
       style="fill:#ffffff;stroke-width:10.1258;stroke-linecap:round;stroke-miterlimit:4;stroke-dasharray:none"
       id="circle849"
       cx="169.52379"
       cy="116.50692" />
  </g>
</svg>
